<?xml version="1.0" encoding="UTF-8"?><svg id="a" xmlns="http://www.w3.org/2000/svg" viewBox="0 0 32 32"><defs><style>.b{fill:#fff;}.b,.c{stroke-width:0px;}.c{fill:#006fee;}</style></defs><path class="c" d="m11.12,15.5c0,2.57,2.22,4.65,4.96,4.65s4.96-2.08,4.96-4.65-2.22-4.66-4.96-4.66-4.96,2.08-4.96,4.66Z"/><rect class="c" x="10.65" y="15.5" width="10.93" height="1.99"/><rect class="c" x="11.12" y="16.84" width="9.92" height="12.31"/><rect class="c" x="7.23" y="18.47" width="17.54" height="10.68"/><path class="c" d="m15.77,8.7c.12-1.42.26-3.35.3-3.87h.02c.04.53.18,2.45.3,3.86.14,1.65,1.5,2.47,1.5,2.47v.06l-1.81.35h0s-1.81-.34-1.81-.34v-.06s1.36-.82,1.5-2.47Z"/><path class="c" d="m15.61,7.55c0,.14.12.26.26.26h.43c.14,0,.26-.12.26-.26h0c0-.14-.12-.26-.26-.26h-.43c-.14,0-.26.12-.26.26h0Z"/><path class="c" d="m15.31,4.85c.52.17,1.09-.11,1.26-.64.17-.52-.11-1.09-.64-1.26-.1-.03-.21-.05-.31-.05.22-.07.46-.07.7,0,.61.2.94.86.74,1.46-.2.61-.86.94-1.46.74-.24-.08-.43-.22-.57-.41.08.06.18.11.28.14Z"/><polygon class="c" points="15.76 2.9 15.45 3.57 14.71 3.48 15.25 3.99 14.93 4.66 15.58 4.3 16.12 4.81 15.99 4.08 16.64 3.72 15.9 3.63 15.76 2.9"/><rect class="c" x="7.23" y="17.87" width="1.1" height="1.14"/><rect class="c" x="8.98" y="17.87" width="1.1" height="1.14"/><rect class="c" x="10.73" y="17.87" width="1.1" height="1.14"/><rect class="c" x="20.17" y="17.87" width="1.1" height="1.14"/><rect class="c" x="21.92" y="17.87" width="1.1" height="1.14"/><rect class="c" x="23.67" y="17.87" width="1.1" height="1.14"/><path class="b" d="m18.49,28.88v-5.95c0-.78-.36-1.47-.91-1.93-.43-.35-1.2-.8-1.58-1.7-.25.66-1.15,1.35-1.58,1.7-.56.46-.92,1.15-.92,1.93v5.95h4.99Z"/><rect class="c" x="12.93" y="23.42" width="1.12" height=".37"/><rect class="c" x="12.81" y="23.72" width="1.12" height=".37"/><rect class="c" x="12.61" y="24" width="1.12" height=".37"/><rect class="c" x="17.94" y="23.42" width="1.12" height=".37"/><rect class="c" x="18.05" y="23.72" width="1.12" height=".37"/><rect class="c" x="18.25" y="24" width="1.12" height=".37"/><path class="b" d="m11.98,26.56v-3.37c0-.46-.21-.86-.54-1.13-.25-.21-.7-.47-.93-1-.15.39-.67.79-.92.99-.33.27-.54.68-.54,1.13v3.37h2.92Z"/><rect class="c" x="8.72" y="23.48" width=".66" height=".22"/><rect class="c" x="8.65" y="23.65" width=".66" height=".22"/><rect class="c" x="8.54" y="23.82" width=".66" height=".22"/><rect class="c" x="11.66" y="23.48" width=".66" height=".22"/><rect class="c" x="11.73" y="23.65" width=".66" height=".22"/><rect class="c" x="11.84" y="23.82" width=".66" height=".22"/><path class="b" d="m22.97,26.56v-3.37c0-.46-.21-.86-.53-1.13-.25-.21-.7-.47-.93-1-.15.39-.67.79-.92.99-.33.27-.54.68-.54,1.13v3.37h2.92Z"/><rect class="c" x="19.71" y="23.48" width=".66" height=".22"/><rect class="c" x="19.64" y="23.65" width=".66" height=".22"/><rect class="c" x="19.53" y="23.82" width=".66" height=".22"/><rect class="c" x="22.65" y="23.48" width=".66" height=".22"/><rect class="c" x="22.72" y="23.65" width=".66" height=".22"/><rect class="c" x="22.83" y="23.82" width=".66" height=".22"/><rect class="c" x="3.92" y="9.08" width="2.58" height=".4"/><rect class="c" x="3.92" y="11.65" width="2.58" height=".4"/><polygon class="c" points="6.49 29.15 3.95 29.15 4.23 9.78 6.21 9.78 6.49 29.15"/><path class="c" d="m6.2,8.36s.01-.1.01-.15c0-.41-.28-.76-.67-.88-.02-.01-.25-.16-.27-.45,0-.07-.01-.15-.02-.22h.03s.04-.02.04-.05-.02-.05-.04-.05h-.03c-.01-.17-.03-.33-.03-.38h0c0,.06-.02.21-.03.38h-.03s-.04.02-.04.05.02.05.04.05h.03c0,.08-.01.15-.02.22-.03.3-.27.45-.27.45h0c-.38.13-.66.48-.66.88,0,.05,0,.1.01.15h1.95Z"/><rect class="c" x="4.45" y="8.22" width="1.57" height="2.01"/><path class="c" d="m4.78,11.25v-.79c0-.12-.1-.21-.21-.21s-.21.1-.21.21v.79h.43Z"/><path class="c" d="m5.42,11.25v-.79c0-.12-.1-.21-.21-.21s-.21.1-.21.21v.79h.43Z"/><path class="c" d="m6.05,11.25v-.79c0-.12-.1-.21-.21-.21s-.21.1-.21.21v.79h.43Z"/><rect class="c" x="25.51" y="9.08" width="2.58" height=".4"/><rect class="c" x="25.51" y="11.65" width="2.58" height=".4"/><polygon class="c" points="28.08 29.15 25.55 29.15 25.82 9.78 27.81 9.78 28.08 29.15"/><path class="c" d="m27.79,8.32s.01-.1.01-.15c0-.41-.28-.75-.67-.88-.02-.01-.25-.16-.27-.45,0-.07-.01-.15-.02-.22h.03s.04-.02.04-.05-.02-.05-.04-.05h-.03c-.01-.17-.03-.33-.03-.38h0c0,.06-.02.21-.03.38h-.03s-.04.02-.04.05.02.05.04.05h.03c0,.08-.01.15-.02.22-.03.3-.27.45-.27.45h0c-.38.13-.66.48-.66.88,0,.05,0,.1.01.15h1.95Z"/><rect class="c" x="26.04" y="8.2" width="1.57" height="2.03"/><path class="c" d="m26.38,11.25v-.79c0-.12-.1-.21-.21-.21s-.21.1-.21.21v.79h.43Z"/><path class="c" d="m27.01,11.25v-.79c0-.12-.1-.21-.21-.21s-.21.1-.21.21v.79h.43Z"/><path class="c" d="m27.65,11.25v-.79c0-.12-.1-.21-.21-.21s-.21.1-.21.21v.79h.43Z"/></svg>